<?xml version="1.0" standalone="no"?><!DOCTYPE svg PUBLIC "-//W3C//DTD SVG 1.1//EN" "http://www.w3.org/Graphics/SVG/1.1/DTD/svg11.dtd" ><svg xmlns="http://www.w3.org/2000/svg"><metadata></metadata><defs><font id="fonteditor" horiz-adv-x="1668"><font-face font-family="Impact" font-weight="700" font-stretch="normal" units-per-em="2048" panose-1="2 11 7 6 5 4 2 5 2 4" ascent="2066" descent="-432" x-height="4" bbox="-12 -303 1668 1772" underline-thickness="102" underline-position="-205" unicode-range="U+0021-00ad" /><missing-glyph horiz-adv-x="1536" d="M256 0 L256 1280 L1280 1280 L1280 0 L256 0 ZM288 32 L1248 32 L1248 1248 L288 1248 L288 32 Z" /><glyph glyph-name="exclam" unicode="!" d="M516 1619 L450 400 L138 400 L72 1619 L516 1619 ZM483 324 L483 0 L105 0 L105 324 L483 324 Z" /><glyph glyph-name="quotedbl" unicode="&quot;" d="M89 1098 L36 1371 L36 1619 L342 1619 L342 1371 L296 1098 L89 1098 ZM468 1098 L415 1371 L415 1619 L721 1619 L721 1371 L674 1098 L468 1098 Z" /><glyph glyph-name="numbersign" unicode="#" d="M36 1061 L344 1061 L428 1444 L617 1444 L533 1061 L888 1061 L970 1444 L1159 1444 L1077 1061 L1247 1061 L1247 871 L1041 871 L978 569 L1247 569 L1247 380 L942 380 L860 0 L670 0 L753 380 L394 380 L316 0 L125 0 L206 380 L36 380 L36 569 L245 569 L308 871 L36 871 L36 1061 ZM497 871 L434 570 L790 570 L852 871 L497 871 Z" /><glyph glyph-name="dollar" unicode="$" d="M1019 1147 L615 1147 L615 1214 Q615 1321 601 1354 Q587 1387 541 1387 Q504 1387 485.5 1358.5 Q467 1330 467 1273 Q467 1178 505 1140 Q542 1102 723 992 Q877 899 933 849.5 Q989 800 1027.5 709.5 Q1066 619 1066 484 Q1066 268 962 145 Q858 22 650 -7 L650 -159 L464 -159 L464 -2 Q302 14 181 122.5 Q60 231 60 501 L60 580 L464 580 L464 481 Q464 318 476.5 278.5 Q489 239 537 239 Q578 239 598 266.5 Q618 294 618 348 Q618 484 599 542.5 Q580 601 469 670 Q284 786 217.5 840.5 Q151 895 102.5 994 Q54 1093 54 1218 Q54 1399 156.5 1502 Q259 1605 464 1629 L464 1758 L650 1758 L650 1629 Q837 1605 930 1503.5 Q1023 1402 1023 1223 Q1023 1198 1019 1147 Z" /><glyph glyph-name="percent" unicode="%" d="M1103 1650 L470 -31 L316 -31 L951 1650 L1103 1650 ZM632 1343 L632 1065 Q632 956 611.5 901.5 Q591 847 523.5 806.5 Q456 766 345 766 Q217 766 150 804.5 Q83 843 59.5 897 Q36 951 36 1052 L36 1343 Q36 1463 60.5 1520.5 Q85 1578 155 1614 Q225 1650 328 1650 Q442 1650 513 1610.5 Q584 1571 608 1515 Q632 1459 632 1343 ZM376 1414 Q376 1478 369.5 1493 Q363 1508 334 1508 Q307 1508 299 1492 Q291 1476 291 1414 L291 1006 Q291 936 298 922 Q305 908 335 908 Q361 908 368.5 924 Q376 940 376 999 L376 1414 ZM1383 561 L1383 282 Q1383 174 1362.5 119 Q1342 64 1274.5 23.5 Q1207 -17 1096 -17 Q969 -17 901.5 22 Q834 61 810.5 115 Q787 169 787 269 L787 561 Q787 680 811.5 737.5 Q836 795 906 831.5 Q976 868 1079 868 Q1194 868 1265 828 Q1336 788 1359.5 732 Q1383 676 1383 561 ZM1127 631 Q1127 695 1120.5 710.5 Q1114 726 1085 726 Q1058 726 1050.5 710 Q1043 694 1043 631 L1043 223 Q1043 154 1050 140 Q1057 126 1086 126 Q1113 126 1120 141.5 Q1127 157 1127 217 L1127 631 Z" /><glyph glyph-name="ampersand" unicode="&amp;" d="M1152 615 L1152 342 L1038 270 L1180 0 L807 0 L758 90 Q570 -34 402 -34 Q226 -34 131 83 Q36 200 36 365 Q36 497 92 572 Q148 647 260 694 Q100 809 100 1005 Q100 1174 214 1277 Q328 1380 528 1380 Q708 1380 811.5 1279 Q915 1178 915 1022 Q915 858 789 731 L932 473 L1152 615 ZM529 899 Q597 988 597 1069 Q597 1104 577 1133 Q557 1162 521 1162 Q488 1162 471 1140 Q454 1118 454 1073 Q454 979 529 899 ZM620 273 L489 491 Q414 423 414 344 Q414 287 437.5 258.5 Q461 230 507 230 Q556 230 620 273 Z" /><glyph glyph-name="quotesingle" unicode="&#39;" d="M89 1098 L36 1371 L36 1619 L342 1619 L342 1371 L296 1098 L89 1098 Z" /><glyph glyph-name="parenleft" unicode="(" d="M605 1619 L605 1408 Q522 1408 497.5 1401 Q473 1394 461.5 1368.5 Q450 1343 450 1224 L450 395 Q450 284 459 256.5 Q468 229 492.5 220 Q517 211 605 211 L605 0 L478 0 Q302 0 219.5 32.5 Q137 65 110.5 128 Q84 191 84 396 L84 1223 Q84 1427 110 1491 Q136 1555 221 1587 Q306 1619 478 1619 L605 1619 Z" /><glyph glyph-name="parenright" unicode=")" d="M36 1619 L163 1619 Q335 1619 420 1587 Q505 1555 531 1491 Q557 1427 557 1223 L557 396 Q557 191 531 128 Q505 65 422 32.5 Q339 0 163 0 L36 0 L36 211 Q125 211 149 220 Q173 229 182.5 256.5 Q192 284 192 395 L192 1224 Q192 1343 180 1368.5 Q168 1394 143.5 1401 Q119 1408 36 1408 L36 1619 Z" /><glyph glyph-name="asterisk" unicode="*" d="M352 1619 L352 1458 L500 1509 L545 1391 L397 1329 L490 1197 L390 1123 L289 1256 L190 1123 L85 1197 L179 1334 L30 1391 L73 1509 L226 1458 L226 1619 L352 1619 Z" /><glyph glyph-name="plus" unicode="+" d="M64 930 L423 930 L423 1290 L667 1290 L667 930 L1028 930 L1028 686 L667 686 L667 328 L423 328 L423 686 L64 686 L64 930 Z" /><glyph glyph-name="comma" unicode="," d="M307 317 L307 172 Q307 58 280 -15 Q253 -88 186.5 -139 Q120 -190 36 -207 L36 -91 Q96 -57 104 0 L36 0 L36 317 L307 317 Z" /><glyph glyph-name="hyphen" unicode="-­" d="M567 803 L567 524 L36 524 L36 803 L567 803 Z" /><glyph glyph-name="period" unicode="." d="M341 330 L341 0 L36 0 L36 330 L341 330 Z" /><glyph glyph-name="slash" unicode="/" d="M798 1650 L318 -31 L12 -31 L495 1650 L798 1650 Z" /><glyph glyph-name="zero" unicode="0" d="M1025 1071 L1025 531 Q1025 347 1005 263 Q985 179 922 106 Q859 33 770 1 Q681 -31 571 -31 Q426 -31 330 2.5 Q234 36 177 107 Q120 178 96 256.5 Q72 335 72 506 L72 1071 Q72 1294 110.5 1405 Q149 1516 263.5 1583 Q378 1650 541 1650 Q674 1650 779 1603.5 Q884 1557 936 1490 Q988 1423 1006.5 1339 Q1025 1255 1025 1071 ZM621 1207 Q621 1336 608.5 1368.5 Q596 1401 550 1401 Q505 1401 490.5 1366.5 Q476 1332 476 1207 L476 417 Q476 276 489.5 247 Q503 218 548 218 Q593 218 607 252 Q621 286 621 405 L621 1207 Z" /><glyph glyph-name="one" unicode="1" d="M695 1619 L695 0 L291 0 L291 868 Q291 1056 282 1094 Q273 1132 232.5 1151.5 Q192 1171 52 1171 L12 1171 L12 1360 Q305 1423 457 1619 L695 1619 Z" /><glyph glyph-name="two" unicode="2" d="M943 276 L943 0 L54 0 L54 231 Q449 877 523.5 1030.5 Q598 1184 598 1270 Q598 1336 575.5 1368.5 Q553 1401 507 1401 Q461 1401 438.5 1365 Q416 1329 416 1222 L416 1068 L54 1068 L54 1127 Q54 1263 68 1341.5 Q82 1420 137 1496 Q192 1572 280 1611 Q368 1650 491 1650 Q732 1650 855.5 1530.5 Q979 1411 979 1228 Q979 1089 909.5 934 Q840 779 500 276 L943 276 Z" /><glyph glyph-name="three" unicode="3" d="M831 917 Q923 886 968 815.5 Q1013 745 1013 485 Q1013 292 969 185.5 Q925 79 817 23.5 Q709 -32 540 -32 Q348 -32 238.5 32.5 Q129 97 94.5 190.5 Q60 284 60 515 L60 643 L464 643 L464 380 Q464 275 476.5 246.5 Q489 218 532 218 Q579 218 594 254 Q609 290 609 442 L609 554 Q609 647 588 690 Q567 733 526 746.5 Q485 760 367 762 L367 997 Q511 997 545 1008 Q579 1019 594 1056 Q609 1093 609 1172 L609 1262 Q609 1347 591.5 1374 Q574 1401 537 1401 Q495 1401 479.5 1372.5 Q464 1344 464 1251 L464 1118 L60 1118 L60 1256 Q60 1488 166 1569.5 Q272 1651 503 1651 Q792 1651 895 1538 Q998 1425 998 1224 Q998 1088 961 1027.5 Q924 967 831 917 Z" /><glyph glyph-name="four" unicode="4" d="M896 1619 L896 561 L1011 561 L1011 285 L896 285 L896 0 L492 0 L492 285 L12 285 L12 561 L361 1619 L896 1619 ZM492 561 L492 1250 L314 561 L492 561 Z" /><glyph glyph-name="five" unicode="5" d="M954 1619 L954 1360 L453 1360 L453 1085 Q547 1196 695 1196 Q862 1196 947.5 1102.5 Q1033 1009 1033 743 L1033 512 Q1033 340 1016.5 259.5 Q1000 179 946 110.5 Q892 42 795.5 5.5 Q699 -31 560 -31 Q404 -31 285 23.5 Q166 78 116 186 Q66 294 66 520 L66 608 L470 608 L470 507 Q470 350 481 284 Q492 218 557 218 Q587 218 605.5 237 Q624 256 625.5 278 Q627 300 629 469 L629 790 Q629 881 610 914 Q591 947 547 947 Q519 947 500 930 Q481 913 475.5 893.5 Q470 874 470 803 L70 803 L87 1619 L954 1619 Z" /><glyph glyph-name="six" unicode="6" d="M1042 1189 L638 1189 Q638 1302 635.5 1331.5 Q633 1361 611.5 1381 Q590 1401 553 1401 Q522 1401 502 1382 Q482 1363 479 1333 Q476 1303 476 1212 L476 954 Q507 1019 567 1051.5 Q627 1084 715 1084 Q826 1084 911 1024 Q996 964 1019 880 Q1042 796 1042 653 L1042 524 Q1042 354 1029 271 Q1016 188 959.5 117.5 Q903 47 804.5 8 Q706 -31 575 -31 Q412 -31 308 14 Q204 59 147.5 143.5 Q91 228 81.5 321 Q72 414 72 682 L72 906 Q72 1195 80.5 1292.5 Q89 1390 150 1477 Q211 1564 316.5 1607.5 Q422 1651 560 1651 Q730 1651 839 1596 Q948 1541 995 1441 Q1042 1341 1042 1189 ZM638 684 Q638 770 619 802 Q600 834 557 834 Q515 834 495.5 803.5 Q476 773 476 684 L476 391 Q476 284 494.5 251 Q513 218 556 218 Q582 218 610 243.5 Q638 269 638 381 L638 684 Z" /><glyph glyph-name="seven" unicode="7" d="M784 1619 L784 1266 L526 0 L124 0 L411 1328 L12 1328 L12 1619 L784 1619 Z" /><glyph glyph-name="eight" unicode="8" d="M843 918 Q932 882 980 810.5 Q1028 739 1028 470 Q1028 274 990 181 Q952 88 842 28.5 Q732 -31 547 -31 Q367 -31 262 26 Q157 83 111.5 177 Q66 271 66 490 Q66 637 88.5 745 Q111 853 230 918 Q155 954 117.5 1032.5 Q80 1111 80 1232 Q80 1441 196 1545.5 Q312 1650 543 1650 Q810 1650 912 1539 Q1014 1428 1014 1222 Q1014 1091 980.5 1033 Q947 975 843 918 ZM616 1266 Q616 1348 601.5 1374.5 Q587 1401 546 1401 Q506 1401 492 1372.5 Q478 1344 478 1266 L478 1143 Q478 1070 494 1042 Q510 1014 548 1014 Q588 1014 602 1041.5 Q616 1069 616 1155 L616 1266 ZM624 593 Q624 686 605 716.5 Q586 747 545 747 Q505 747 487.5 717.5 Q470 688 470 593 L470 383 Q470 278 489.5 248 Q509 218 551 218 Q594 218 609 248.5 Q624 279 624 386 L624 593 Z" /><glyph glyph-name="nine" unicode="9" d="M72 430 L476 430 Q476 317 479 287.5 Q482 258 503.5 238 Q525 218 562 218 Q593 218 613 237 Q633 256 635.5 286 Q638 316 638 407 L638 665 Q608 600 548 567.5 Q488 535 399 535 Q288 535 203 595 Q118 655 95 739 Q72 823 72 966 L72 1095 Q72 1265 85.5 1348 Q99 1431 155 1501.5 Q211 1572 310 1611 Q409 1650 540 1650 Q702 1650 806 1605 Q910 1560 967 1475.5 Q1024 1391 1033 1298 Q1042 1205 1042 938 L1042 713 Q1042 424 1034 326.5 Q1026 229 964.5 142 Q903 55 798 11.5 Q693 -32 555 -32 Q384 -32 275.5 23 Q167 78 119.5 178 Q72 278 72 430 ZM476 935 Q476 833 502.5 809 Q529 785 557 785 Q599 785 618.5 815.5 Q638 846 638 935 L638 1228 Q638 1335 619.5 1368 Q601 1401 558 1401 Q532 1401 504 1375.5 Q476 1350 476 1238 L476 935 Z" /><glyph glyph-name="colon" unicode=":" d="M377 1054 L377 725 L72 725 L72 1054 L377 1054 ZM377 330 L377 0 L72 0 L72 330 L377 330 Z" /><glyph glyph-name="semicolon" unicode=";" d="M377 1054 L377 725 L72 725 L72 1054 L377 1054 ZM360 317 L360 172 Q360 58 333 -15 Q306 -88 239.5 -139 Q173 -190 89 -207 L89 -91 Q149 -57 157 0 L89 0 L89 317 L360 317 Z" /><glyph glyph-name="less" unicode="&lt;" d="M1027 324 L65 725 L65 928 L1027 1330 L1027 1066 L433 827 L1027 589 L1027 324 Z" /><glyph glyph-name="equal" unicode="=" d="M65 1122 L1027 1122 L1027 878 L65 878 L65 1122 ZM65 740 L1027 740 L1027 496 L65 496 L65 740 Z" /><glyph glyph-name="greater" unicode="&gt;" d="M65 1330 L1027 930 L1027 726 L65 324 L65 588 L659 827 L65 1065 L65 1330 Z" /><glyph glyph-name="question" unicode="?" d="M488 1097 L84 1097 Q86 1310 120 1408 Q154 1506 267.5 1579.5 Q381 1653 557 1653 Q684 1653 779 1613 Q874 1573 930 1501.5 Q986 1430 1012 1347 Q1038 1264 1038 1087 L1038 889 Q1038 754 1013 672 Q988 590 904 528 Q820 466 707 466 Q560 466 488 581 L488 407 L111 407 L111 852 L479 852 Q481 760 545 760 Q595 760 608.5 800.5 Q622 841 622 999 L622 1268 Q622 1357 609.5 1387.5 Q597 1418 560 1418 Q514 1418 501 1377.5 Q488 1337 488 1195 L488 1097 ZM488 324 L488 0 L111 0 L111 324 L488 324 Z" /><glyph glyph-name="at" unicode="@" d="M1193 1308 L1066 516 Q1062 490 1062 481 Q1062 442 1099 442 Q1159 442 1229.5 499.5 Q1300 557 1352.5 670 Q1405 783 1405 934 Q1405 1189 1251.5 1346.5 Q1098 1504 849 1504 Q560 1504 372 1304.5 Q184 1105 184 772 Q184 451 367.5 262.5 Q551 74 835 74 Q975 74 1101 121 Q1227 168 1340 261 L1550 261 Q1420 95 1227.5 10 Q1035 -75 836 -75 Q495 -75 265.5 155.5 Q36 386 36 763 Q36 1137 250 1395 Q464 1653 845 1653 Q1072 1653 1216 1565.5 Q1360 1478 1456.5 1321.5 Q1553 1165 1553 934 Q1553 627 1382 450.5 Q1211 274 1039 274 Q910 274 882 390 Q814 324 764.5 298.5 Q715 273 646 273 Q497 273 407 389 Q317 505 317 699 Q317 949 442.5 1143.5 Q568 1338 748 1338 Q820 1338 878 1302 Q936 1266 979 1194 L995 1308 L1193 1308 ZM525 642 Q525 548 565 483 Q605 418 672 418 Q737 418 786.5 469 Q836 520 878 678.5 Q920 837 920 981 Q920 1071 882 1126.5 Q844 1182 779 1182 Q657 1182 591 1010.5 Q525 839 525 642 Z" /><glyph glyph-name="A" unicode="a" d="M811 1619 L1052 0 L621 0 L600 291 L449 291 L424 0 L-12 0 L202 1619 L811 1619 ZM588 578 Q556 853 524 1257 Q460 793 444 578 L588 578 Z" /><glyph glyph-name="B" unicode="b" d="M84 1619 L504 1619 Q703 1619 805.5 1588 Q908 1557 971 1462.5 Q1034 1368 1034 1158 Q1034 1016 989.5 960 Q945 904 814 874 Q960 841 1012 764.5 Q1064 688 1064 530 L1064 380 Q1064 216 1026.5 137 Q989 58 907 29 Q825 0 571 0 L84 0 L84 1619 ZM505 1342 L505 982 Q532 983 547 983 Q609 983 626 1013.5 Q643 1044 643 1188 Q643 1264 629 1294.5 Q615 1325 592.5 1333 Q570 1341 505 1342 ZM505 730 L505 277 Q594 280 618.5 305 Q643 330 643 428 L643 579 Q643 683 621 705 Q599 727 505 730 Z" /><glyph glyph-name="C" unicode="c" d="M1067 913 L646 913 L646 1195 Q646 1318 632.5 1348.5 Q619 1379 573 1379 Q521 1379 507 1342 Q493 1305 493 1182 L493 430 Q493 312 507 276 Q521 240 570 240 Q617 240 631.5 276 Q646 312 646 445 L646 648 L1067 648 L1067 585 Q1067 334 1031.5 229 Q996 124 874.5 45 Q753 -34 575 -34 Q390 -34 270 33 Q150 100 111 218.5 Q72 337 72 575 L72 1048 Q72 1223 84 1310.5 Q96 1398 155.5 1479 Q215 1560 320.5 1606.5 Q426 1653 563 1653 Q749 1653 870 1581 Q991 1509 1029 1401.5 Q1067 1294 1067 1067 L1067 913 Z" /><glyph glyph-name="D" unicode="d" d="M84 1619 L399 1619 Q704 1619 811.5 1591 Q919 1563 975 1499 Q1031 1435 1045 1356.5 Q1059 1278 1059 1048 L1059 481 Q1059 263 1038.5 189.5 Q1018 116 967 74.5 Q916 33 841 16.5 Q766 0 615 0 L84 0 L84 1619 ZM505 1342 L505 277 Q596 277 617 313.5 Q638 350 638 512 L638 1141 Q638 1251 631 1282 Q624 1313 599 1327.5 Q574 1342 505 1342 Z" /><glyph glyph-name="E" unicode="e" d="M84 1619 L786 1619 L786 1295 L505 1295 L505 988 L768 988 L768 680 L505 680 L505 324 L814 324 L814 0 L84 0 L84 1619 Z" /><glyph glyph-name="F" unicode="f" d="M84 1619 L797 1619 L797 1295 L505 1295 L505 988 L765 988 L765 680 L505 680 L505 0 L84 0 L84 1619 Z" /><glyph glyph-name="G" unicode="g" d="M1050 1023 L629 1023 L629 1170 Q629 1309 617 1344 Q605 1379 560 1379 Q521 1379 507 1349 Q493 1319 493 1195 L493 418 Q493 309 507 274.5 Q521 240 563 240 Q609 240 625.5 279 Q642 318 642 431 L642 623 L557 623 L557 869 L1050 869 L1050 0 L785 0 L746 116 Q703 41 637.5 3.5 Q572 -34 483 -34 Q377 -34 284.5 17.5 Q192 69 144 145 Q96 221 84 304.5 Q72 388 72 555 L72 1036 Q72 1268 97 1373 Q122 1478 240.5 1565.5 Q359 1653 547 1653 Q732 1653 854 1577 Q976 1501 1013 1396.5 Q1050 1292 1050 1093 L1050 1023 Z" /><glyph glyph-name="H" unicode="h" d="M1052 1619 L1052 0 L631 0 L631 680 L505 680 L505 0 L84 0 L84 1619 L505 1619 L505 1040 L631 1040 L631 1619 L1052 1619 Z" /><glyph glyph-name="I" unicode="i" d="M505 1619 L505 0 L84 0 L84 1619 L505 1619 Z" /><glyph glyph-name="J" unicode="j" d="M599 1619 L599 537 Q599 294 594 224.5 Q589 155 548.5 99 Q508 43 438.5 21.5 Q369 0 229 0 L18 0 L18 283 Q56 280 73 280 Q118 280 144 302 Q170 324 174 356 Q178 388 178 480 L178 1619 L599 1619 Z" /><glyph glyph-name="K" unicode="k" d="M1087 1619 L846 888 L1110 0 L675 0 L505 694 L505 0 L84 0 L84 1619 L505 1619 L505 990 L692 1619 L1087 1619 Z" /><glyph glyph-name="L" unicode="l" d="M505 1619 L505 324 L761 324 L761 0 L84 0 L84 1619 L505 1619 Z" /><glyph glyph-name="M" unicode="m" d="M1383 1619 L1383 0 L1015 0 L1015 1093 L868 0 L607 0 L452 1068 L452 0 L84 0 L84 1619 L629 1619 Q653 1473 680 1275 L738 863 L834 1619 L1383 1619 Z" /><glyph glyph-name="N" unicode="n" d="M1024 1619 L1024 0 L655 0 L436 736 L436 0 L84 0 L84 1619 L436 1619 L672 890 L672 1619 L1024 1619 Z" /><glyph glyph-name="O" unicode="o" d="M1046 671 Q1046 427 1034.5 325.5 Q1023 224 962.5 140 Q902 56 799 11 Q696 -34 559 -34 Q429 -34 325.5 8.5 Q222 51 159 136 Q96 221 84 321 Q72 421 72 671 L72 948 Q72 1192 83.5 1293.5 Q95 1395 155.5 1479 Q216 1563 319 1608 Q422 1653 559 1653 Q689 1653 792.5 1610.5 Q896 1568 959 1483 Q1022 1398 1034 1298 Q1046 1198 1046 948 L1046 671 ZM625 1203 Q625 1316 612.5 1347.5 Q600 1379 561 1379 Q528 1379 510.5 1353.5 Q493 1328 493 1203 L493 447 Q493 306 504.5 273 Q516 240 558 240 Q601 240 613 278 Q625 316 625 459 L625 1203 Z" /><glyph glyph-name="P" unicode="p" d="M84 1619 L508 1619 Q680 1619 772.5 1592 Q865 1565 911.5 1514 Q958 1463 974.5 1390.5 Q991 1318 991 1166 L991 1025 Q991 870 959 799 Q927 728 841.5 690 Q756 652 618 652 L505 652 L505 0 L84 0 L84 1619 ZM505 1342 L505 930 Q523 929 536 929 Q594 929 616.5 957.5 Q639 986 639 1076 L639 1209 Q639 1292 613 1317 Q587 1342 505 1342 Z" /><glyph glyph-name="Q" unicode="q" d="M1047 0 L1047 -196 L729 -196 Q614 -196 567 -178.5 Q520 -161 503.5 -126 Q487 -91 487 0 Q344 4 241 75 Q138 146 105 255.5 Q72 365 72 583 L72 1084 Q72 1249 91.5 1335.5 Q111 1422 172 1498.5 Q233 1575 329 1614 Q425 1653 542 1653 Q683 1653 793.5 1605 Q904 1557 958.5 1483 Q1013 1409 1029.5 1329.5 Q1046 1250 1046 1093 L1046 567 Q1046 351 1025 274 Q1004 197 944.5 151.5 Q885 106 786 82 Q789 28 808.5 14 Q828 0 901 0 L1047 0 ZM625 1203 Q625 1316 612.5 1347.5 Q600 1379 561 1379 Q528 1379 510.5 1353.5 Q493 1328 493 1203 L493 447 Q493 306 504.5 273 Q516 240 558 240 Q601 240 613 278 Q625 316 625 459 L625 1203 Z" /><glyph glyph-name="R" unicode="r" d="M84 1619 L382 1619 Q680 1619 785.5 1596 Q891 1573 957.5 1478.5 Q1024 1384 1024 1177 Q1024 988 977 923 Q930 858 792 845 Q917 814 960 762 Q1003 710 1013.5 666.5 Q1024 623 1024 427 L1024 0 L633 0 L633 538 Q633 668 612.5 699 Q592 730 505 730 L505 0 L84 0 L84 1619 ZM505 1342 L505 982 Q576 982 604.5 1001.5 Q633 1021 633 1128 L633 1217 Q633 1294 605.5 1318 Q578 1342 505 1342 Z" /><glyph glyph-name="S" unicode="s" d="M976 1129 L585 1129 L585 1249 Q585 1333 570 1356 Q555 1379 520 1379 Q482 1379 462.5 1348 Q443 1317 443 1254 Q443 1173 465 1132 Q486 1091 584 1033 Q865 866 938 759 Q1011 652 1011 414 Q1011 241 970.5 159 Q930 77 814 21.5 Q698 -34 544 -34 Q375 -34 255.5 30 Q136 94 99 193 Q62 292 62 474 L62 580 L453 580 L453 383 Q453 292 469.5 266 Q486 240 528 240 Q570 240 590.5 273 Q611 306 611 371 Q611 514 572 558 Q532 602 375 705 Q218 809 167 856 Q116 903 82.5 986 Q49 1069 49 1198 Q49 1384 96.5 1470 Q144 1556 250 1604.5 Q356 1653 506 1653 Q670 1653 785.5 1600 Q901 1547 938.5 1466.5 Q976 1386 976 1193 L976 1129 Z" /><glyph glyph-name="T" unicode="t" d="M932 1619 L932 1295 L682 1295 L682 0 L261 0 L261 1295 L12 1295 L12 1619 L932 1619 Z" /><glyph glyph-name="U" unicode="u" d="M1041 1619 L1041 537 Q1041 353 1029 278.5 Q1017 204 958 125.5 Q899 47 802.5 6.5 Q706 -34 575 -34 Q430 -34 319 14 Q208 62 153 139 Q98 216 88 301.5 Q78 387 78 661 L78 1619 L499 1619 L499 405 Q499 299 510.5 269.5 Q522 240 557 240 Q597 240 608.5 272.5 Q620 305 620 426 L620 1619 L1041 1619 Z" /><glyph glyph-name="V" unicode="v" d="M1084 1619 L870 0 L231 0 L-12 1619 L432 1619 Q509 950 542 488 Q575 955 611 1318 L640 1619 L1084 1619 Z" /><glyph glyph-name="W" unicode="w" d="M1668 1619 L1481 0 L955 0 Q883 373 828 848 Q803 645 711 0 L188 0 L0 1619 L409 1619 L452 1054 L496 509 Q519 932 612 1619 L1050 1619 Q1059 1548 1096 1085 L1142 470 Q1177 1057 1259 1619 L1668 1619 Z" /><glyph glyph-name="X" unicode="x" d="M937 1619 L790 903 L1012 0 L622 0 Q552 242 494 589 Q478 436 450 264 L410 0 L0 0 L152 903 L0 1619 L407 1619 Q418 1552 451 1396 Q477 1277 494 1178 L584 1619 L937 1619 Z" /><glyph glyph-name="Y" unicode="y" d="M981 1619 L674 586 L674 0 L284 0 L284 586 L-12 1619 L375 1619 Q466 1146 477 982 Q512 1241 594 1619 L981 1619 Z" /><glyph glyph-name="Z" unicode="z" d="M788 1619 L788 1295 L474 324 L788 324 L788 0 L12 0 L12 235 L336 1295 L50 1295 L50 1619 L788 1619 Z" /><glyph glyph-name="bracketleft" unicode="[" d="M541 1619 L541 1370 L450 1370 L450 249 L541 249 L541 0 L84 0 L84 1619 L541 1619 Z" /><glyph glyph-name="backslash" unicode="\" d="M12 1650 L315 1650 L798 -31 L493 -31 L12 1650 Z" /><glyph glyph-name="bracketright" unicode="]" d="M36 0 L36 249 L127 249 L127 1370 L36 1370 L36 1619 L493 1619 L493 0 L36 0 Z" /><glyph glyph-name="asciicircum" unicode="^" d="M12 820 L388 1619 L611 1619 L977 820 L693 820 L495 1309 L298 820 L12 820 Z" /><glyph glyph-name="underscore" unicode="_" d="M-12 -154 L1143 -154 L1143 -256 L-12 -256 L-12 -154 Z" /><glyph glyph-name="grave" unicode="`" d="M0 1772 L356 1772 L532 1501 L329 1501 L0 1772 Z" /><glyph glyph-name="a" unicode="a" d="M433 813 L54 813 L54 902 Q54 1056 89.5 1139.5 Q125 1223 232 1287 Q339 1351 510 1351 Q715 1351 819 1278.5 Q923 1206 944 1100.5 Q965 995 965 666 L965 0 L572 0 L572 118 Q535 47 476.5 11.5 Q418 -24 337 -24 Q231 -24 142.5 35.5 Q54 95 54 296 L54 405 Q54 554 101 608 Q148 662 334 734 Q533 812 547 839 Q561 866 561 949 Q561 1053 545.5 1084.5 Q530 1116 494 1116 Q453 1116 443 1089.5 Q433 1063 433 952 L433 813 ZM561 631 Q464 560 448.5 512 Q433 464 433 374 Q433 271 446.5 241 Q460 211 500 211 Q538 211 549.5 234.5 Q561 258 561 358 L561 631 Z" /><glyph glyph-name="b" unicode="b" d="M476 1619 L476 1236 Q526 1294 587.5 1322.5 Q649 1351 721 1351 Q804 1351 865 1325 Q926 1299 958 1252 Q990 1205 996.5 1160 Q1003 1115 1003 968 L1003 370 Q1003 224 983.5 152.5 Q964 81 892 28.5 Q820 -24 721 -24 Q650 -24 588.5 7 Q527 38 476 100 L450 0 L72 0 L72 1619 L476 1619 ZM599 950 Q599 1053 586 1084.5 Q573 1116 535 1116 Q498 1116 487 1088.5 Q476 1061 476 950 L476 378 Q476 271 488.5 241 Q501 211 538 211 Q576 211 587.5 242 Q599 273 599 391 L599 950 Z" /><glyph glyph-name="c" unicode="c" d="M965 826 L584 826 L584 979 Q584 1059 571 1087.5 Q558 1116 523 1116 Q488 1116 476 1091 Q464 1066 464 979 L464 353 Q464 282 482 246.5 Q500 211 535 211 Q576 211 590.5 248 Q605 285 605 388 L605 546 L965 546 Q964 387 953.5 307.5 Q943 228 886.5 144.5 Q830 61 739 18.5 Q648 -24 514 -24 Q343 -24 243 34.5 Q143 93 101.5 198.5 Q60 304 60 498 L60 875 Q60 1044 94 1130 Q128 1216 239 1283.5 Q350 1351 509 1351 Q667 1351 779 1284 Q891 1217 928 1115 Q965 1013 965 826 Z" /><glyph glyph-name="d" unicode="d" d="M991 1619 L991 0 L587 0 L587 96 Q529 36 465 6 Q401 -24 331 -24 Q237 -24 168 25.5 Q99 75 79.5 140 Q60 205 60 352 L60 973 Q60 1126 79.5 1190 Q99 1254 169 1302.5 Q239 1351 336 1351 Q411 1351 473.5 1324 Q536 1297 587 1243 L587 1619 L991 1619 ZM587 993 Q587 1066 574.5 1091 Q562 1116 525 1116 Q489 1116 476.5 1093.5 Q464 1071 464 993 L464 343 Q464 262 476 236.5 Q488 211 522 211 Q561 211 574 239.5 Q587 268 587 379 L587 993 Z" /><glyph glyph-name="e" unicode="e" d="M987 640 L464 640 L464 353 Q464 263 477 237 Q490 211 527 211 Q573 211 588.5 245.5 Q604 280 604 379 L604 554 L987 554 L987 456 Q987 333 971.5 267 Q956 201 899 126 Q842 51 754.5 13.5 Q667 -24 535 -24 Q407 -24 309 13 Q211 50 156.5 114.5 Q102 179 81 256.5 Q60 334 60 482 L60 869 Q60 1043 107 1143.5 Q154 1244 261 1297.5 Q368 1351 507 1351 Q677 1351 787.5 1286.5 Q898 1222 942.5 1115.5 Q987 1009 987 816 L987 640 ZM582 856 L582 953 Q582 1056 571 1086 Q560 1116 526 1116 Q484 1116 474 1090.5 Q464 1065 464 953 L464 856 L582 856 Z" /><glyph glyph-name="f" unicode="f" d="M587 1619 L587 1414 Q462 1414 439.5 1402.5 Q417 1391 417 1337 L417 1295 L587 1295 L587 1085 L491 1085 L491 0 L87 0 L87 1085 L4 1085 L4 1295 L87 1295 Q87 1426 96 1470 Q105 1514 140.5 1548.5 Q176 1583 240 1601 Q304 1619 439 1619 L587 1619 Z" /><glyph glyph-name="g" unicode="g" d="M990 1327 L990 305 Q990 98 980.5 37.5 Q971 -23 913 -90.5 Q855 -158 751.5 -193.5 Q648 -229 491 -229 Q298 -229 181 -163.5 Q64 -98 60 94 L452 94 Q452 6 516 6 Q562 6 577 33 Q592 60 592 146 L592 246 Q540 199 482.5 175 Q425 151 362 151 Q253 151 182.5 195 Q112 239 86 310.5 Q60 382 60 514 L60 996 Q60 1185 128 1268 Q196 1351 335 1351 Q411 1351 473.5 1320 Q536 1289 585 1227 L614 1327 L990 1327 ZM585 975 Q585 1066 574.5 1091 Q564 1116 528 1116 Q493 1116 478.5 1087.5 Q464 1059 464 975 L464 529 Q464 440 475 413.5 Q486 387 521 387 Q561 387 573 419 Q585 451 585 564 L585 975 Z" /><glyph glyph-name="h" unicode="h" d="M476 1619 L476 1255 Q528 1303 588.5 1327 Q649 1351 718 1351 Q824 1351 898.5 1297 Q973 1243 989.5 1172.5 Q1006 1102 1006 915 L1006 0 L602 0 L602 934 Q602 1050 590.5 1083 Q579 1116 539 1116 Q502 1116 489 1082 Q476 1048 476 947 L476 0 L72 0 L72 1619 L476 1619 Z" /><glyph glyph-name="i" unicode="i" d="M488 1619 L488 1408 L72 1408 L72 1619 L488 1619 ZM488 1327 L488 0 L72 0 L72 1327 L488 1327 Z" /><glyph glyph-name="j" unicode="j" d="M500 1619 L500 1408 L84 1408 L84 1619 L500 1619 ZM500 1327 L500 277 Q500 92 492.5 26.5 Q485 -39 446.5 -88.5 Q408 -138 343.5 -162 Q279 -186 150 -186 L-6 -186 L-6 26 Q66 26 75 42 Q84 58 84 242 L84 1327 L500 1327 Z" /><glyph glyph-name="k" unicode="k" d="M942 1327 L778 798 L991 0 L602 0 L476 578 L476 0 L72 0 L72 1619 L476 1619 L476 939 L602 1327 L942 1327 Z" /><glyph glyph-name="l" unicode="l" d="M488 1619 L488 0 L72 0 L72 1619 L488 1619 Z" /><glyph glyph-name="m" unicode="m" d="M471 1327 L464 1201 Q511 1276 576 1313.5 Q641 1351 724 1351 Q886 1351 979 1201 Q1030 1276 1094 1313.5 Q1158 1351 1236 1351 Q1339 1351 1406.5 1301 Q1474 1251 1493 1178.5 Q1512 1106 1512 943 L1512 0 L1120 0 L1120 865 Q1120 1035 1108.5 1075.5 Q1097 1116 1055 1116 Q1012 1116 999.5 1076 Q987 1036 987 865 L987 0 L595 0 L595 843 Q595 1038 585.5 1077 Q576 1116 533 1116 Q506 1116 487 1095.5 Q468 1075 466 1045.5 Q464 1016 464 920 L464 0 L72 0 L72 1327 L471 1327 Z" /><glyph glyph-name="n" unicode="n" d="M483 1327 L476 1205 Q520 1278 583.5 1314.5 Q647 1351 730 1351 Q834 1351 900 1302 Q966 1253 985 1178.5 Q1004 1104 1004 930 L1004 0 L600 0 L600 919 Q600 1056 591 1086 Q582 1116 541 1116 Q498 1116 487 1081.5 Q476 1047 476 897 L476 0 L72 0 L72 1327 L483 1327 Z" /><glyph glyph-name="o" unicode="o" d="M986 861 L986 536 Q986 357 968 273.5 Q950 190 891 117.5 Q832 45 739.5 10.5 Q647 -24 527 -24 Q393 -24 300 5.5 Q207 35 155.5 94.5 Q104 154 82 238.5 Q60 323 60 492 L60 832 Q60 1017 100 1121 Q140 1225 244 1288 Q348 1351 510 1351 Q646 1351 743.5 1310.5 Q841 1270 894 1205 Q947 1140 966.5 1071 Q986 1002 986 861 ZM582 961 Q582 1063 571 1089.5 Q560 1116 524 1116 Q488 1116 476 1089.5 Q464 1063 464 961 L464 362 Q464 268 476 239.5 Q488 211 523 211 Q559 211 570.5 237 Q582 263 582 349 L582 961 Z" /><glyph glyph-name="p" unicode="p" d="M483 1327 L476 1210 Q530 1281 595 1316 Q660 1351 737 1351 Q831 1351 899.5 1300.5 Q968 1250 985 1184 Q1002 1118 1002 960 L1002 401 Q1002 220 980.5 143.5 Q959 67 892.5 21.5 Q826 -24 732 -24 Q657 -24 593 11 Q529 46 476 115 L476 -189 L72 -189 L72 1327 L483 1327 ZM598 941 Q598 1064 589 1090 Q580 1116 539 1116 Q499 1116 487.5 1086 Q476 1056 476 941 L476 391 Q476 271 488 241 Q500 211 540 211 Q579 211 588.5 238.5 Q598 266 598 372 L598 941 Z" /><glyph glyph-name="q" unicode="q" d="M988 1327 L988 -189 L584 -189 L584 107 Q525 21 475.5 -1.5 Q426 -24 353 -24 Q247 -24 177.5 26 Q108 76 84 155.5 Q60 235 60 399 L60 984 Q60 1119 78 1185.5 Q96 1252 164.5 1301.5 Q233 1351 327 1351 Q403 1351 467 1317 Q531 1283 584 1214 L591 1327 L988 1327 ZM584 966 Q584 1054 570.5 1085 Q557 1116 522 1116 Q488 1116 476 1089 Q464 1062 464 966 L464 375 Q464 268 476 239.5 Q488 211 525 211 Q560 211 572 240.5 Q584 270 584 369 L584 966 Z" /><glyph glyph-name="r" unicode="r" d="M476 1327 L460 1153 Q548 1340 715 1351 L715 884 Q604 884 552 854 Q500 824 488 770.5 Q476 717 476 524 L476 0 L72 0 L72 1327 L476 1327 Z" /><glyph glyph-name="s" unicode="s" d="M897 903 L539 903 L539 975 Q539 1067 528.5 1091.5 Q518 1116 476 1116 Q442 1116 425 1093.5 Q408 1071 408 1026 Q408 965 416.5 936.5 Q425 908 467.5 874 Q510 840 642 775 Q818 689 873 613 Q928 537 928 392 Q928 230 886 147.5 Q844 65 745.5 20.5 Q647 -24 508 -24 Q354 -24 244.5 24 Q135 72 94 154 Q53 236 53 402 L53 466 L411 466 L411 382 Q411 275 424.5 243 Q438 211 478 211 Q521 211 538 232.5 Q555 254 555 323 Q555 418 533 442 Q510 466 298 584 Q120 684 81 765.5 Q42 847 42 959 Q42 1118 84 1193.5 Q126 1269 226.5 1310 Q327 1351 460 1351 Q592 1351 684.5 1317.5 Q777 1284 826.5 1229 Q876 1174 886.5 1127 Q897 1080 897 980 L897 903 Z" /><glyph glyph-name="t" unicode="t" d="M498 1504 L498 1295 L607 1295 L607 1085 L498 1085 L498 375 Q498 244 511.5 229 Q525 214 624 214 L624 0 L461 0 Q323 0 264 11.5 Q205 23 160 64.5 Q115 106 104 159.5 Q93 213 93 411 L93 1085 L6 1085 L6 1295 L93 1295 L93 1504 L498 1504 Z" /><glyph glyph-name="u" unicode="u" d="M997 1327 L997 0 L586 0 L593 110 Q551 43 489.5 9.5 Q428 -24 348 -24 Q257 -24 197 8 Q137 40 108.5 93 Q80 146 73 203.5 Q66 261 66 432 L66 1327 L470 1327 L470 424 Q470 269 479.5 240 Q489 211 531 211 Q576 211 584.5 241 Q593 271 593 434 L593 1327 L997 1327 Z" /><glyph glyph-name="v" unicode="v" d="M907 1327 L718 0 L191 0 L-12 1327 L349 1327 L462 359 Q475 465 506 879 Q524 1110 546 1327 L907 1327 Z" /><glyph glyph-name="w" unicode="w" d="M1377 1327 L1216 0 L777 0 Q741 243 694 640 Q678 466 649 288 L604 0 L165 0 L-6 1327 L342 1327 Q346 1275 430 568 Q436 640 520 1327 L855 1327 L937 568 Q956 900 1029 1327 L1377 1327 Z" /><glyph glyph-name="x" unicode="x" d="M872 1327 L711 693 L906 0 L513 0 Q455 262 425 451 Q385 215 338 0 L0 0 L174 693 L0 1327 L338 1327 Q419 921 425 866 Q483 1205 513 1327 L872 1327 Z" /><glyph glyph-name="y" unicode="y" d="M918 1327 L802 367 Q775 139 756.5 56 Q738 -27 695 -81 Q652 -135 575.5 -160.5 Q499 -186 331 -186 L86 -186 L86 26 Q180 26 207 35.5 Q234 45 234 78 Q234 94 209 217 L-12 1327 L355 1327 L487 432 L551 1327 L918 1327 Z" /><glyph glyph-name="z" unicode="z" d="M701 1327 L701 1033 L403 266 L701 266 L701 0 L12 0 L12 278 L317 1061 L43 1061 L43 1327 L701 1327 Z" /><glyph glyph-name="braceleft" unicode="{" d="M36 538 L36 778 Q145 779 200 842.5 Q255 906 255 1128 Q255 1297 267.5 1378.5 Q280 1460 328 1515 Q376 1570 452 1594.5 Q528 1619 667 1619 L720 1619 L720 1380 Q575 1380 546.5 1350 Q518 1320 516 1233 Q510 993 500.5 921 Q491 849 456.5 783.5 Q422 718 328 658 Q417 604 457.5 529 Q498 454 505 313 L520 22 Q529 -20 563 -41.5 Q597 -63 719 -63 L719 -303 L667 -303 Q507 -303 420 -266.5 Q333 -230 294 -147 Q255 -64 255 121 Q255 325 241 382 Q227 439 187 486.5 Q147 534 36 538 Z" /><glyph glyph-name="bar" unicode="|" d="M169 1619 L386 1619 L386 -265 L169 -265 L169 1619 Z" /><glyph glyph-name="braceright" unicode="}" d="M720 538 Q611 537 556 473 Q501 409 501 189 Q501 19 489 -62.5 Q477 -144 429 -199 Q381 -254 305 -278.5 Q229 -303 90 -303 L37 -303 L37 -63 Q176 -63 207.5 -34 Q239 -5 241 84 Q247 340 259.5 412.5 Q272 485 309.5 548 Q347 611 428 658 Q342 714 308 768 Q274 822 262 885.5 Q250 949 244 1121.5 Q238 1294 230 1319 Q222 1344 191.5 1362 Q161 1380 36 1380 L36 1619 L89 1619 Q249 1619 336 1582.5 Q423 1546 462 1463 Q501 1380 501 1195 Q501 983 516.5 928 Q532 873 571.5 827.5 Q611 782 720 778 L720 538 Z" /><glyph glyph-name="asciitilde" unicode="~" d="M1018 787 Q860 656 734 656 Q648 656 478 738 Q381 785 336 785 Q227 785 57 623 L57 900 Q204 1028 346 1028 Q431 1028 578 958 Q697 901 747 901 Q793 901 845 927.5 Q897 954 1018 1062 L1018 787 Z" /></font>
</defs>
</svg>
